<svg xmlns="http://www.w3.org/2000/svg" width="1024" height="1024" viewBox="0 0 1024 1024">
  <rect width="1024" height="1024" fill="#ffffff"/>
  <g fill="#f0f0f0">
    <rect x="0" y="0" width="128" height="64"/>
    <rect x="256" y="64" width="128" height="64"/>
    <rect x="512" y="0" width="128" height="64"/>
    <rect x="768" y="64" width="128" height="64"/>
    <rect x="128" y="256" width="128" height="64"/>
    <rect x="384" y="320" width="128" height="64"/>
    <rect x="640" y="256" width="128" height="64"/>
    <rect x="896" y="320" width="128" height="64"/>
    <rect x="0" y="512" width="128" height="64"/>
    <rect x="256" y="576" width="128" height="64"/>
    <rect x="512" y="512" width="128" height="64"/>
    <rect x="768" y="576" width="128" height="64"/>
    <rect x="128" y="768" width="128" height="64"/>
    <rect x="384" y="832" width="128" height="64"/>
    <rect x="640" y="768" width="128" height="64"/>
    <rect x="896" y="832" width="128" height="64"/>
  </g>
</svg>
